<svg xmlns="http://www.w3.org/2000/svg" xmlns:xlink="http://www.w3.org/1999/xlink" width="300" zoomAndPan="magnify" viewBox="0 0 224.87999 44.999999" height="60" preserveAspectRatio="xMidYMid meet" version="1.0"><defs><g><g id="id1"/></g></defs><g fill="rgb(21.958923%, 71.369934%, 100%)" fill-opacity="1"><g transform="translate(14.383172, 29.623706)"><g><path d="M 5.75 0.125 C 5.144531 0.125 4.707031 -0.0078125 4.4375 -0.28125 C 4.175781 -0.550781 4.046875 -1.070312 4.046875 -1.84375 C 4.046875 -2.351562 4.097656 -3.007812 4.203125 -3.8125 C 4.304688 -4.613281 4.484375 -5.71875 4.734375 -7.125 C 5.171875 -9.71875 5.507812 -11.96875 5.75 -13.875 C 5.90625 -15.0625 5.984375 -16.050781 5.984375 -16.84375 C 5.984375 -17.59375 5.707031 -17.96875 5.15625 -17.96875 C 4.726562 -17.96875 4.210938 -17.75 3.609375 -17.3125 C 3.003906 -16.875 2.335938 -16.171875 1.609375 -15.203125 C 1.378906 -14.890625 1.125 -14.734375 0.84375 -14.734375 C 0.613281 -14.734375 0.410156 -14.84375 0.234375 -15.0625 C 0.0546875 -15.289062 -0.03125 -15.546875 -0.03125 -15.828125 C -0.03125 -16.097656 0.0195312 -16.367188 0.125 -16.640625 C 0.238281 -16.910156 0.421875 -17.21875 0.671875 -17.5625 C 1.460938 -18.675781 2.34375 -19.535156 3.3125 -20.140625 C 4.289062 -20.742188 5.269531 -21.046875 6.25 -21.046875 C 7.164062 -21.046875 7.863281 -20.753906 8.34375 -20.171875 C 8.832031 -19.585938 9.078125 -18.742188 9.078125 -17.640625 C 9.078125 -17.191406 9.035156 -16.664062 8.953125 -16.0625 C 8.867188 -15.457031 8.796875 -14.960938 8.734375 -14.578125 C 8.671875 -14.203125 8.617188 -13.941406 8.578125 -13.796875 C 9.523438 -16.492188 10.582031 -18.375 11.75 -19.4375 C 12.925781 -20.507812 14.21875 -21.046875 15.625 -21.046875 C 16.707031 -21.046875 17.554688 -20.664062 18.171875 -19.90625 C 18.796875 -19.144531 19.109375 -18.066406 19.109375 -16.671875 C 19.109375 -16.128906 19.03125 -15.453125 18.875 -14.640625 C 19.707031 -16.921875 20.675781 -18.554688 21.78125 -19.546875 C 22.894531 -20.546875 24.171875 -21.046875 25.609375 -21.046875 C 26.765625 -21.046875 27.648438 -20.671875 28.265625 -19.921875 C 28.890625 -19.179688 29.203125 -18.140625 29.203125 -16.796875 C 29.203125 -16.066406 29.09375 -15.179688 28.875 -14.140625 L 27.375 -7.046875 C 27.207031 -6.222656 27.125 -5.507812 27.125 -4.90625 C 27.125 -4.21875 27.285156 -3.695312 27.609375 -3.34375 C 27.929688 -3 28.378906 -2.828125 28.953125 -2.828125 C 29.503906 -2.828125 30.039062 -3.007812 30.5625 -3.375 C 31.082031 -3.738281 31.695312 -4.34375 32.40625 -5.1875 C 32.601562 -5.414062 32.828125 -5.53125 33.078125 -5.53125 C 33.285156 -5.53125 33.453125 -5.429688 33.578125 -5.234375 C 33.703125 -5.035156 33.765625 -4.765625 33.765625 -4.421875 C 33.765625 -3.773438 33.609375 -3.257812 33.296875 -2.875 C 32.441406 -1.832031 31.59375 -1.070312 30.75 -0.59375 C 29.90625 -0.113281 29.019531 0.125 28.09375 0.125 C 26.6875 0.125 25.582031 -0.289062 24.78125 -1.125 C 23.988281 -1.957031 23.59375 -3.078125 23.59375 -4.484375 C 23.59375 -5.460938 23.789062 -6.878906 24.1875 -8.734375 L 25.1875 -13.28125 C 25.21875 -13.425781 25.273438 -13.6875 25.359375 -14.0625 C 25.441406 -14.445312 25.503906 -14.804688 25.546875 -15.140625 C 25.597656 -15.484375 25.625 -15.820312 25.625 -16.15625 C 25.625 -16.726562 25.515625 -17.160156 25.296875 -17.453125 C 25.078125 -17.742188 24.757812 -17.890625 24.34375 -17.890625 C 23.5625 -17.890625 22.742188 -17.390625 21.890625 -16.390625 C 21.046875 -15.390625 20.238281 -13.726562 19.46875 -11.40625 C 18.695312 -9.09375 18.070312 -6.082031 17.59375 -2.375 C 17.476562 -1.382812 17.273438 -0.71875 16.984375 -0.375 C 16.691406 -0.0390625 16.222656 0.125 15.578125 0.125 C 15.015625 0.125 14.601562 -0.00390625 14.34375 -0.265625 C 14.09375 -0.535156 13.96875 -1.035156 13.96875 -1.765625 C 13.96875 -2.441406 14.054688 -3.328125 14.234375 -4.421875 C 14.421875 -5.523438 14.65625 -6.820312 14.9375 -8.3125 C 15.695312 -12.3125 16.078125 -14.890625 16.078125 -16.046875 C 16.078125 -16.679688 15.957031 -17.144531 15.71875 -17.4375 C 15.476562 -17.738281 15.117188 -17.890625 14.640625 -17.890625 C 13.828125 -17.890625 12.988281 -17.429688 12.125 -16.515625 C 11.269531 -15.597656 10.429688 -13.96875 9.609375 -11.625 C 8.796875 -9.28125 8.113281 -6.117188 7.5625 -2.140625 C 7.445312 -1.296875 7.273438 -0.707031 7.046875 -0.375 C 6.828125 -0.0390625 6.394531 0.125 5.75 0.125 Z M 5.75 0.125 "/></g></g></g><g fill="rgb(21.958923%, 71.369934%, 100%)" fill-opacity="1"><g transform="translate(46.920706, 29.623706)"><g><path d="M 13.890625 -5.484375 C 14.109375 -5.484375 14.28125 -5.378906 14.40625 -5.171875 C 14.53125 -4.960938 14.59375 -4.703125 14.59375 -4.390625 C 14.59375 -4.015625 14.535156 -3.71875 14.421875 -3.5 C 14.304688 -3.28125 14.125 -3.085938 13.875 -2.921875 L 9.109375 0.265625 C 8.472656 3.691406 7.644531 6.382812 6.625 8.34375 C 5.613281 10.3125 4.320312 11.296875 2.75 11.296875 C 1.90625 11.296875 1.21875 11.03125 0.6875 10.5 C 0.164062 9.976562 -0.09375 9.300781 -0.09375 8.46875 C -0.09375 7.6875 0.0820312 6.890625 0.4375 6.078125 C 0.789062 5.265625 1.453125 4.332031 2.421875 3.28125 C 3.390625 2.238281 4.757812 1.035156 6.53125 -0.328125 L 6.59375 -0.890625 C 6.71875 -1.503906 6.851562 -2.378906 7 -3.515625 C 6.664062 -2.328125 6.203125 -1.421875 5.609375 -0.796875 C 5.015625 -0.179688 4.382812 0.125 3.71875 0.125 C 2.976562 0.125 2.367188 -0.21875 1.890625 -0.90625 C 1.421875 -1.59375 1.1875 -2.445312 1.1875 -3.46875 C 1.1875 -4.707031 1.269531 -5.84375 1.4375 -6.875 C 1.601562 -7.914062 1.878906 -9.015625 2.265625 -10.171875 C 2.421875 -10.671875 2.648438 -11.023438 2.953125 -11.234375 C 3.253906 -11.453125 3.722656 -11.5625 4.359375 -11.5625 C 4.722656 -11.5625 4.972656 -11.503906 5.109375 -11.390625 C 5.253906 -11.273438 5.328125 -11.101562 5.328125 -10.875 C 5.328125 -10.738281 5.238281 -10.289062 5.0625 -9.53125 C 4.894531 -8.914062 4.765625 -8.359375 4.671875 -7.859375 C 4.535156 -7.179688 4.414062 -6.53125 4.3125 -5.90625 C 4.21875 -5.289062 4.171875 -4.785156 4.171875 -4.390625 C 4.171875 -3.765625 4.34375 -3.453125 4.6875 -3.453125 C 4.9375 -3.453125 5.242188 -3.695312 5.609375 -4.1875 C 5.984375 -4.6875 6.378906 -5.441406 6.796875 -6.453125 C 7.222656 -7.460938 7.640625 -8.703125 8.046875 -10.171875 C 8.171875 -10.671875 8.367188 -11.023438 8.640625 -11.234375 C 8.921875 -11.453125 9.332031 -11.5625 9.875 -11.5625 C 10.257812 -11.5625 10.523438 -11.507812 10.671875 -11.40625 C 10.816406 -11.3125 10.890625 -11.148438 10.890625 -10.921875 C 10.890625 -10.503906 10.675781 -9.082031 10.25 -6.65625 L 9.609375 -2.65625 C 10.878906 -3.613281 12.117188 -4.488281 13.328125 -5.28125 C 13.535156 -5.414062 13.722656 -5.484375 13.890625 -5.484375 Z M 3.03125 8.890625 C 3.4375 8.890625 3.894531 8.40625 4.40625 7.4375 C 4.925781 6.476562 5.441406 4.882812 5.953125 2.65625 C 4.679688 3.726562 3.757812 4.707031 3.1875 5.59375 C 2.613281 6.476562 2.328125 7.253906 2.328125 7.921875 C 2.328125 8.203125 2.378906 8.429688 2.484375 8.609375 C 2.597656 8.796875 2.78125 8.890625 3.03125 8.890625 Z M 3.03125 8.890625 "/></g></g></g><g fill="rgb(0%, 0%, 0%)" fill-opacity="1"><g transform="translate(60.764668, 29.623706)"><g><path d="M 8.109375 0.203125 C 5.910156 0.203125 4.148438 -0.210938 2.828125 -1.046875 C 1.503906 -1.890625 0.84375 -3.171875 0.84375 -4.890625 C 0.84375 -5.796875 1 -6.488281 1.3125 -6.96875 C 1.625 -7.445312 2.085938 -7.6875 2.703125 -7.6875 C 3.148438 -7.6875 3.515625 -7.570312 3.796875 -7.34375 C 4.078125 -7.113281 4.21875 -6.816406 4.21875 -6.453125 C 4.21875 -6.117188 4.191406 -5.828125 4.140625 -5.578125 C 4.140625 -5.515625 4.125 -5.398438 4.09375 -5.234375 C 4.070312 -5.066406 4.0625 -4.894531 4.0625 -4.71875 C 4.0625 -3.96875 4.4375 -3.410156 5.1875 -3.046875 C 5.945312 -2.679688 7.003906 -2.5 8.359375 -2.5 C 9.765625 -2.5 10.863281 -2.75 11.65625 -3.25 C 12.457031 -3.757812 12.859375 -4.472656 12.859375 -5.390625 C 12.859375 -5.953125 12.675781 -6.429688 12.3125 -6.828125 C 11.945312 -7.234375 11.488281 -7.570312 10.9375 -7.84375 C 10.394531 -8.125 9.628906 -8.460938 8.640625 -8.859375 C 7.359375 -9.359375 6.316406 -9.828125 5.515625 -10.265625 C 4.710938 -10.710938 4.023438 -11.320312 3.453125 -12.09375 C 2.890625 -12.863281 2.609375 -13.820312 2.609375 -14.96875 C 2.609375 -16.15625 2.925781 -17.210938 3.5625 -18.140625 C 4.195312 -19.066406 5.113281 -19.785156 6.3125 -20.296875 C 7.507812 -20.804688 8.921875 -21.0625 10.546875 -21.0625 C 11.753906 -21.0625 12.863281 -20.882812 13.875 -20.53125 C 14.882812 -20.175781 15.6875 -19.632812 16.28125 -18.90625 C 16.882812 -18.175781 17.1875 -17.285156 17.1875 -16.234375 C 17.1875 -15.191406 17.03125 -14.40625 16.71875 -13.875 C 16.40625 -13.34375 15.941406 -13.078125 15.328125 -13.078125 C 14.898438 -13.078125 14.539062 -13.207031 14.25 -13.46875 C 13.96875 -13.738281 13.828125 -14.054688 13.828125 -14.421875 C 13.828125 -14.734375 13.847656 -15.019531 13.890625 -15.28125 C 13.941406 -15.78125 13.96875 -16.097656 13.96875 -16.234375 C 13.96875 -16.921875 13.628906 -17.445312 12.953125 -17.8125 C 12.273438 -18.175781 11.429688 -18.359375 10.421875 -18.359375 C 8.992188 -18.359375 7.90625 -18.097656 7.15625 -17.578125 C 6.40625 -17.054688 6.03125 -16.328125 6.03125 -15.390625 C 6.03125 -14.753906 6.222656 -14.210938 6.609375 -13.765625 C 7.003906 -13.316406 7.488281 -12.941406 8.0625 -12.640625 C 8.644531 -12.347656 9.457031 -12 10.5 -11.59375 C 11.75 -11.070312 12.753906 -10.601562 13.515625 -10.1875 C 14.285156 -9.78125 14.9375 -9.21875 15.46875 -8.5 C 16.007812 -7.789062 16.28125 -6.914062 16.28125 -5.875 C 16.28125 -3.925781 15.535156 -2.425781 14.046875 -1.375 C 12.566406 -0.320312 10.585938 0.203125 8.109375 0.203125 Z M 8.109375 0.203125 "/></g></g></g><g fill="rgb(0%, 0%, 0%)" fill-opacity="1"><g transform="translate(79.924857, 29.623706)"><g><path d="M 12.25 -5.53125 C 12.46875 -5.53125 12.640625 -5.429688 12.765625 -5.234375 C 12.890625 -5.035156 12.953125 -4.765625 12.953125 -4.421875 C 12.953125 -3.753906 12.796875 -3.238281 12.484375 -2.875 C 11.867188 -2.132812 11.003906 -1.445312 9.890625 -0.8125 C 8.773438 -0.1875 7.578125 0.125 6.296875 0.125 C 4.566406 0.125 3.21875 -0.34375 2.25 -1.28125 C 1.289062 -2.226562 0.8125 -3.519531 0.8125 -5.15625 C 0.8125 -6.300781 1.050781 -7.363281 1.53125 -8.34375 C 2.019531 -9.332031 2.6875 -10.113281 3.53125 -10.6875 C 4.382812 -11.269531 5.347656 -11.5625 6.421875 -11.5625 C 7.378906 -11.5625 8.148438 -11.273438 8.734375 -10.703125 C 9.316406 -10.128906 9.609375 -9.359375 9.609375 -8.390625 C 9.609375 -7.242188 9.195312 -6.257812 8.375 -5.4375 C 7.550781 -4.625 6.164062 -3.976562 4.21875 -3.5 C 4.632812 -2.738281 5.421875 -2.359375 6.578125 -2.359375 C 7.316406 -2.359375 8.160156 -2.617188 9.109375 -3.140625 C 10.066406 -3.660156 10.894531 -4.34375 11.59375 -5.1875 C 11.789062 -5.414062 12.007812 -5.53125 12.25 -5.53125 Z M 6 -9.125 C 5.394531 -9.125 4.878906 -8.769531 4.453125 -8.0625 C 4.035156 -7.351562 3.828125 -6.492188 3.828125 -5.484375 L 3.828125 -5.4375 C 4.796875 -5.664062 5.5625 -6.007812 6.125 -6.46875 C 6.6875 -6.9375 6.96875 -7.476562 6.96875 -8.09375 C 6.96875 -8.40625 6.878906 -8.65625 6.703125 -8.84375 C 6.535156 -9.03125 6.300781 -9.125 6 -9.125 Z M 6 -9.125 "/></g></g></g><g fill="rgb(0%, 0%, 0%)" fill-opacity="1"><g transform="translate(91.639397, 29.623706)"><g><path d="M 5.9375 0.125 C 4.3125 0.125 3.046875 -0.332031 2.140625 -1.25 C 1.242188 -2.164062 0.796875 -3.378906 0.796875 -4.890625 C 0.796875 -6.222656 1.054688 -7.394531 1.578125 -8.40625 C 2.109375 -9.414062 2.796875 -10.191406 3.640625 -10.734375 C 4.484375 -11.285156 5.367188 -11.5625 6.296875 -11.5625 C 7.210938 -11.5625 7.921875 -11.289062 8.421875 -10.75 C 8.929688 -10.21875 9.1875 -9.53125 9.1875 -8.6875 C 9.1875 -7.988281 9.03125 -7.398438 8.71875 -6.921875 C 8.414062 -6.441406 8.015625 -6.203125 7.515625 -6.203125 C 7.203125 -6.203125 6.945312 -6.273438 6.75 -6.421875 C 6.5625 -6.578125 6.46875 -6.785156 6.46875 -7.046875 C 6.46875 -7.160156 6.484375 -7.289062 6.515625 -7.4375 C 6.554688 -7.59375 6.582031 -7.703125 6.59375 -7.765625 C 6.675781 -8.015625 6.71875 -8.25 6.71875 -8.46875 C 6.71875 -8.675781 6.664062 -8.835938 6.5625 -8.953125 C 6.457031 -9.066406 6.304688 -9.125 6.109375 -9.125 C 5.722656 -9.125 5.363281 -8.953125 5.03125 -8.609375 C 4.707031 -8.273438 4.441406 -7.816406 4.234375 -7.234375 C 4.035156 -6.660156 3.9375 -6.023438 3.9375 -5.328125 C 3.9375 -3.410156 4.773438 -2.453125 6.453125 -2.453125 C 7.128906 -2.453125 7.859375 -2.679688 8.640625 -3.140625 C 9.429688 -3.597656 10.207031 -4.28125 10.96875 -5.1875 C 11.164062 -5.414062 11.390625 -5.53125 11.640625 -5.53125 C 11.847656 -5.53125 12.015625 -5.429688 12.140625 -5.234375 C 12.265625 -5.035156 12.328125 -4.765625 12.328125 -4.421875 C 12.328125 -3.785156 12.171875 -3.269531 11.859375 -2.875 C 11.078125 -1.914062 10.144531 -1.175781 9.0625 -0.65625 C 7.976562 -0.132812 6.9375 0.125 5.9375 0.125 Z M 5.9375 0.125 "/></g></g></g><g fill="rgb(0%, 0%, 0%)" fill-opacity="1"><g transform="translate(102.733458, 29.623706)"><g><path d="M 2.953125 0.125 C 2.328125 0.125 1.882812 -0.203125 1.625 -0.859375 C 1.363281 -1.523438 1.234375 -2.585938 1.234375 -4.046875 C 1.234375 -6.191406 1.539062 -8.234375 2.15625 -10.171875 C 2.300781 -10.648438 2.546875 -11 2.890625 -11.21875 C 3.234375 -11.445312 3.707031 -11.5625 4.3125 -11.5625 C 4.644531 -11.5625 4.875 -11.519531 5 -11.4375 C 5.132812 -11.351562 5.203125 -11.195312 5.203125 -10.96875 C 5.203125 -10.695312 5.082031 -10.101562 4.84375 -9.1875 C 4.675781 -8.519531 4.539062 -7.9375 4.4375 -7.4375 C 4.34375 -6.945312 4.257812 -6.335938 4.1875 -5.609375 C 4.738281 -7.023438 5.351562 -8.179688 6.03125 -9.078125 C 6.707031 -9.972656 7.367188 -10.609375 8.015625 -10.984375 C 8.671875 -11.367188 9.273438 -11.5625 9.828125 -11.5625 C 10.898438 -11.5625 11.4375 -11.023438 11.4375 -9.953125 C 11.4375 -9.734375 11.363281 -9.210938 11.21875 -8.390625 C 11.082031 -7.722656 11.015625 -7.304688 11.015625 -7.140625 C 11.015625 -6.566406 11.222656 -6.28125 11.640625 -6.28125 C 12.097656 -6.28125 12.691406 -6.644531 13.421875 -7.375 C 13.640625 -7.582031 13.863281 -7.6875 14.09375 -7.6875 C 14.3125 -7.6875 14.476562 -7.59375 14.59375 -7.40625 C 14.71875 -7.21875 14.78125 -6.96875 14.78125 -6.65625 C 14.78125 -6.039062 14.617188 -5.554688 14.296875 -5.203125 C 13.828125 -4.722656 13.28125 -4.3125 12.65625 -3.96875 C 12.039062 -3.632812 11.382812 -3.46875 10.6875 -3.46875 C 9.8125 -3.46875 9.144531 -3.691406 8.6875 -4.140625 C 8.238281 -4.585938 8.015625 -5.191406 8.015625 -5.953125 C 8.015625 -6.203125 8.039062 -6.453125 8.09375 -6.703125 C 8.125 -7.035156 8.140625 -7.257812 8.140625 -7.375 C 8.140625 -7.632812 8.046875 -7.765625 7.859375 -7.765625 C 7.617188 -7.765625 7.296875 -7.488281 6.890625 -6.9375 C 6.484375 -6.382812 6.082031 -5.648438 5.6875 -4.734375 C 5.289062 -3.828125 4.96875 -2.867188 4.71875 -1.859375 C 4.53125 -1.078125 4.316406 -0.550781 4.078125 -0.28125 C 3.835938 -0.0078125 3.460938 0.125 2.953125 0.125 Z M 2.953125 0.125 "/></g></g></g><g fill="rgb(0%, 0%, 0%)" fill-opacity="1"><g transform="translate(115.986763, 29.623706)"><g><path d="M 12.25 -5.53125 C 12.46875 -5.53125 12.640625 -5.429688 12.765625 -5.234375 C 12.890625 -5.035156 12.953125 -4.765625 12.953125 -4.421875 C 12.953125 -3.753906 12.796875 -3.238281 12.484375 -2.875 C 11.867188 -2.132812 11.003906 -1.445312 9.890625 -0.8125 C 8.773438 -0.1875 7.578125 0.125 6.296875 0.125 C 4.566406 0.125 3.21875 -0.34375 2.25 -1.28125 C 1.289062 -2.226562 0.8125 -3.519531 0.8125 -5.15625 C 0.8125 -6.300781 1.050781 -7.363281 1.53125 -8.34375 C 2.019531 -9.332031 2.6875 -10.113281 3.53125 -10.6875 C 4.382812 -11.269531 5.347656 -11.5625 6.421875 -11.5625 C 7.378906 -11.5625 8.148438 -11.273438 8.734375 -10.703125 C 9.316406 -10.128906 9.609375 -9.359375 9.609375 -8.390625 C 9.609375 -7.242188 9.195312 -6.257812 8.375 -5.4375 C 7.550781 -4.625 6.164062 -3.976562 4.21875 -3.5 C 4.632812 -2.738281 5.421875 -2.359375 6.578125 -2.359375 C 7.316406 -2.359375 8.160156 -2.617188 9.109375 -3.140625 C 10.066406 -3.660156 10.894531 -4.34375 11.59375 -5.1875 C 11.789062 -5.414062 12.007812 -5.53125 12.25 -5.53125 Z M 6 -9.125 C 5.394531 -9.125 4.878906 -8.769531 4.453125 -8.0625 C 4.035156 -7.351562 3.828125 -6.492188 3.828125 -5.484375 L 3.828125 -5.4375 C 4.796875 -5.664062 5.5625 -6.007812 6.125 -6.46875 C 6.6875 -6.9375 6.96875 -7.476562 6.96875 -8.09375 C 6.96875 -8.40625 6.878906 -8.65625 6.703125 -8.84375 C 6.535156 -9.03125 6.300781 -9.125 6 -9.125 Z M 6 -9.125 "/></g></g></g><g fill="rgb(0%, 0%, 0%)" fill-opacity="1"><g transform="translate(127.701303, 29.623706)"><g><path d="M 12.25 -5.53125 C 12.46875 -5.53125 12.640625 -5.429688 12.765625 -5.234375 C 12.890625 -5.035156 12.953125 -4.765625 12.953125 -4.421875 C 12.953125 -3.753906 12.796875 -3.238281 12.484375 -2.875 C 11.765625 -2 10.984375 -1.28125 10.140625 -0.71875 C 9.304688 -0.15625 8.34375 0.125 7.25 0.125 C 3.875 0.125 2.1875 -2.25 2.1875 -7 C 2.1875 -7.726562 2.210938 -8.460938 2.265625 -9.203125 L 1.296875 -9.203125 C 0.796875 -9.203125 0.457031 -9.289062 0.28125 -9.46875 C 0.113281 -9.65625 0.03125 -9.945312 0.03125 -10.34375 C 0.03125 -11.269531 0.398438 -11.734375 1.140625 -11.734375 L 2.5625 -11.734375 C 2.84375 -13.554688 3.269531 -15.21875 3.84375 -16.71875 C 4.425781 -18.226562 5.125 -19.425781 5.9375 -20.3125 C 6.757812 -21.207031 7.640625 -21.65625 8.578125 -21.65625 C 9.273438 -21.65625 9.820312 -21.347656 10.21875 -20.734375 C 10.613281 -20.128906 10.8125 -19.363281 10.8125 -18.4375 C 10.8125 -15.875 9.738281 -13.640625 7.59375 -11.734375 L 10.375 -11.734375 C 10.632812 -11.734375 10.820312 -11.675781 10.9375 -11.5625 C 11.050781 -11.445312 11.109375 -11.234375 11.109375 -10.921875 C 11.109375 -9.773438 10.175781 -9.203125 8.3125 -9.203125 L 5.28125 -9.203125 C 5.25 -8.378906 5.234375 -7.734375 5.234375 -7.265625 C 5.234375 -5.546875 5.4375 -4.335938 5.84375 -3.640625 C 6.25 -2.953125 6.890625 -2.609375 7.765625 -2.609375 C 8.472656 -2.609375 9.097656 -2.820312 9.640625 -3.25 C 10.191406 -3.675781 10.84375 -4.320312 11.59375 -5.1875 C 11.789062 -5.414062 12.007812 -5.53125 12.25 -5.53125 Z M 7.921875 -19.28125 C 7.671875 -19.28125 7.390625 -18.96875 7.078125 -18.34375 C 6.773438 -17.726562 6.488281 -16.867188 6.21875 -15.765625 C 5.945312 -14.671875 5.71875 -13.453125 5.53125 -12.109375 C 6.507812 -12.953125 7.242188 -13.898438 7.734375 -14.953125 C 8.222656 -16.003906 8.46875 -16.957031 8.46875 -17.8125 C 8.46875 -18.789062 8.285156 -19.28125 7.921875 -19.28125 Z M 7.921875 -19.28125 "/></g></g></g><g fill="rgb(76.078796%, 42.749023%, 73.728943%)" fill-opacity="1"><g transform="translate(139.414103, 29.623706)"><g><path d="M 5.75 0.125 C 5.144531 0.125 4.707031 -0.0078125 4.4375 -0.28125 C 4.175781 -0.550781 4.046875 -1.070312 4.046875 -1.84375 C 4.046875 -2.351562 4.09375 -2.96875 4.1875 -3.6875 C 4.289062 -4.414062 4.46875 -5.519531 4.71875 -7 C 4.75 -7.195312 4.878906 -8 5.109375 -9.40625 C 5.335938 -10.820312 5.546875 -12.3125 5.734375 -13.875 C 5.898438 -15.195312 5.984375 -16.1875 5.984375 -16.84375 C 5.984375 -17.59375 5.707031 -17.96875 5.15625 -17.96875 C 4.75 -17.96875 4.234375 -17.75 3.609375 -17.3125 C 2.992188 -16.875 2.328125 -16.171875 1.609375 -15.203125 C 1.378906 -14.890625 1.125 -14.734375 0.84375 -14.734375 C 0.613281 -14.734375 0.410156 -14.84375 0.234375 -15.0625 C 0.0546875 -15.289062 -0.03125 -15.546875 -0.03125 -15.828125 C -0.03125 -16.109375 0.015625 -16.375 0.109375 -16.625 C 0.210938 -16.882812 0.398438 -17.195312 0.671875 -17.5625 C 1.484375 -18.675781 2.382812 -19.535156 3.375 -20.140625 C 4.363281 -20.742188 5.40625 -21.046875 6.5 -21.046875 C 7.40625 -21.046875 8.085938 -20.765625 8.546875 -20.203125 C 9.003906 -19.640625 9.234375 -18.816406 9.234375 -17.734375 C 9.234375 -16.773438 9.097656 -15.390625 8.828125 -13.578125 C 9.660156 -16.023438 10.710938 -17.878906 11.984375 -19.140625 C 13.253906 -20.410156 14.75 -21.046875 16.46875 -21.046875 C 17.832031 -21.046875 18.851562 -20.660156 19.53125 -19.890625 C 20.21875 -19.117188 20.5625 -18.085938 20.5625 -16.796875 C 20.5625 -16.066406 20.457031 -15.179688 20.25 -14.140625 L 18.734375 -7.046875 C 18.566406 -6.222656 18.484375 -5.507812 18.484375 -4.90625 C 18.484375 -4.21875 18.644531 -3.695312 18.96875 -3.34375 C 19.289062 -3 19.742188 -2.828125 20.328125 -2.828125 C 20.867188 -2.828125 21.398438 -3.007812 21.921875 -3.375 C 22.441406 -3.738281 23.054688 -4.34375 23.765625 -5.1875 C 23.960938 -5.414062 24.1875 -5.53125 24.4375 -5.53125 C 24.65625 -5.53125 24.828125 -5.429688 24.953125 -5.234375 C 25.078125 -5.035156 25.140625 -4.765625 25.140625 -4.421875 C 25.140625 -3.773438 24.976562 -3.257812 24.65625 -2.875 C 23.800781 -1.832031 22.953125 -1.070312 22.109375 -0.59375 C 21.265625 -0.113281 20.378906 0.125 19.453125 0.125 C 18.046875 0.125 16.945312 -0.289062 16.15625 -1.125 C 15.363281 -1.957031 14.96875 -3.078125 14.96875 -4.484375 C 14.96875 -5.035156 15.007812 -5.632812 15.09375 -6.28125 C 15.1875 -6.925781 15.34375 -7.742188 15.5625 -8.734375 L 16.546875 -13.28125 C 16.578125 -13.425781 16.632812 -13.6875 16.71875 -14.0625 C 16.800781 -14.445312 16.867188 -14.804688 16.921875 -15.140625 C 16.972656 -15.484375 17 -15.820312 17 -16.15625 C 17 -16.6875 16.847656 -17.109375 16.546875 -17.421875 C 16.253906 -17.734375 15.832031 -17.890625 15.28125 -17.890625 C 14.289062 -17.890625 13.296875 -17.359375 12.296875 -16.296875 C 11.304688 -15.242188 10.390625 -13.535156 9.546875 -11.171875 C 8.703125 -8.816406 8.039062 -5.804688 7.5625 -2.140625 C 7.445312 -1.296875 7.273438 -0.707031 7.046875 -0.375 C 6.828125 -0.0390625 6.394531 0.125 5.75 0.125 Z M 5.75 0.125 "/></g></g></g><g fill="rgb(76.078796%, 42.749023%, 73.728943%)" fill-opacity="1"><g transform="translate(163.314685, 29.623706)"><g><path d="M 13.84375 -7.625 C 14.0625 -7.625 14.226562 -7.515625 14.34375 -7.296875 C 14.457031 -7.078125 14.515625 -6.800781 14.515625 -6.46875 C 14.515625 -5.675781 14.273438 -5.207031 13.796875 -5.0625 C 12.804688 -4.71875 11.710938 -4.519531 10.515625 -4.46875 C 10.203125 -3.070312 9.582031 -1.957031 8.65625 -1.125 C 7.726562 -0.289062 6.679688 0.125 5.515625 0.125 C 4.515625 0.125 3.660156 -0.113281 2.953125 -0.59375 C 2.253906 -1.070312 1.722656 -1.707031 1.359375 -2.5 C 0.992188 -3.300781 0.8125 -4.164062 0.8125 -5.09375 C 0.8125 -6.34375 1.050781 -7.457031 1.53125 -8.4375 C 2.019531 -9.425781 2.679688 -10.195312 3.515625 -10.75 C 4.359375 -11.3125 5.296875 -11.59375 6.328125 -11.59375 C 7.585938 -11.59375 8.597656 -11.15625 9.359375 -10.28125 C 10.128906 -9.414062 10.582031 -8.347656 10.71875 -7.078125 C 11.5 -7.117188 12.425781 -7.28125 13.5 -7.5625 C 13.632812 -7.601562 13.75 -7.625 13.84375 -7.625 Z M 5.703125 -2.5 C 6.234375 -2.5 6.691406 -2.710938 7.078125 -3.140625 C 7.472656 -3.578125 7.734375 -4.203125 7.859375 -5.015625 C 7.347656 -5.359375 6.957031 -5.8125 6.6875 -6.375 C 6.414062 -6.9375 6.28125 -7.53125 6.28125 -8.15625 C 6.28125 -8.425781 6.304688 -8.691406 6.359375 -8.953125 L 6.234375 -8.953125 C 5.566406 -8.953125 5.015625 -8.632812 4.578125 -8 C 4.140625 -7.363281 3.921875 -6.46875 3.921875 -5.3125 C 3.921875 -4.394531 4.097656 -3.695312 4.453125 -3.21875 C 4.804688 -2.738281 5.222656 -2.5 5.703125 -2.5 Z M 5.703125 -2.5 "/></g></g></g><g fill="rgb(76.078796%, 42.749023%, 73.728943%)" fill-opacity="1"><g transform="translate(176.468718, 29.623706)"><g><path d="M 12.25 -5.53125 C 12.46875 -5.53125 12.640625 -5.429688 12.765625 -5.234375 C 12.890625 -5.035156 12.953125 -4.765625 12.953125 -4.421875 C 12.953125 -3.753906 12.796875 -3.238281 12.484375 -2.875 C 11.765625 -2 10.984375 -1.28125 10.140625 -0.71875 C 9.304688 -0.15625 8.34375 0.125 7.25 0.125 C 3.875 0.125 2.1875 -2.25 2.1875 -7 C 2.1875 -7.726562 2.210938 -8.460938 2.265625 -9.203125 L 1.296875 -9.203125 C 0.796875 -9.203125 0.457031 -9.289062 0.28125 -9.46875 C 0.113281 -9.65625 0.03125 -9.945312 0.03125 -10.34375 C 0.03125 -11.269531 0.398438 -11.734375 1.140625 -11.734375 L 2.5625 -11.734375 C 2.84375 -13.554688 3.269531 -15.21875 3.84375 -16.71875 C 4.425781 -18.226562 5.125 -19.425781 5.9375 -20.3125 C 6.757812 -21.207031 7.640625 -21.65625 8.578125 -21.65625 C 9.273438 -21.65625 9.820312 -21.347656 10.21875 -20.734375 C 10.613281 -20.128906 10.8125 -19.363281 10.8125 -18.4375 C 10.8125 -15.875 9.738281 -13.640625 7.59375 -11.734375 L 10.375 -11.734375 C 10.632812 -11.734375 10.820312 -11.675781 10.9375 -11.5625 C 11.050781 -11.445312 11.109375 -11.234375 11.109375 -10.921875 C 11.109375 -9.773438 10.175781 -9.203125 8.3125 -9.203125 L 5.28125 -9.203125 C 5.25 -8.378906 5.234375 -7.734375 5.234375 -7.265625 C 5.234375 -5.546875 5.4375 -4.335938 5.84375 -3.640625 C 6.25 -2.953125 6.890625 -2.609375 7.765625 -2.609375 C 8.472656 -2.609375 9.097656 -2.820312 9.640625 -3.25 C 10.191406 -3.675781 10.84375 -4.320312 11.59375 -5.1875 C 11.789062 -5.414062 12.007812 -5.53125 12.25 -5.53125 Z M 7.921875 -19.28125 C 7.671875 -19.28125 7.390625 -18.96875 7.078125 -18.34375 C 6.773438 -17.726562 6.488281 -16.867188 6.21875 -15.765625 C 5.945312 -14.671875 5.71875 -13.453125 5.53125 -12.109375 C 6.507812 -12.953125 7.242188 -13.898438 7.734375 -14.953125 C 8.222656 -16.003906 8.46875 -16.957031 8.46875 -17.8125 C 8.46875 -18.789062 8.285156 -19.28125 7.921875 -19.28125 Z M 7.921875 -19.28125 "/></g></g></g><g fill="rgb(76.078796%, 42.749023%, 73.728943%)" fill-opacity="1"><g transform="translate(188.183256, 29.623706)"><g><path d="M 12.25 -5.53125 C 12.46875 -5.53125 12.640625 -5.429688 12.765625 -5.234375 C 12.890625 -5.035156 12.953125 -4.765625 12.953125 -4.421875 C 12.953125 -3.753906 12.796875 -3.238281 12.484375 -2.875 C 11.867188 -2.132812 11.003906 -1.445312 9.890625 -0.8125 C 8.773438 -0.1875 7.578125 0.125 6.296875 0.125 C 4.566406 0.125 3.21875 -0.34375 2.25 -1.28125 C 1.289062 -2.226562 0.8125 -3.519531 0.8125 -5.15625 C 0.8125 -6.300781 1.050781 -7.363281 1.53125 -8.34375 C 2.019531 -9.332031 2.6875 -10.113281 3.53125 -10.6875 C 4.382812 -11.269531 5.347656 -11.5625 6.421875 -11.5625 C 7.378906 -11.5625 8.148438 -11.273438 8.734375 -10.703125 C 9.316406 -10.128906 9.609375 -9.359375 9.609375 -8.390625 C 9.609375 -7.242188 9.195312 -6.257812 8.375 -5.4375 C 7.550781 -4.625 6.164062 -3.976562 4.21875 -3.5 C 4.632812 -2.738281 5.421875 -2.359375 6.578125 -2.359375 C 7.316406 -2.359375 8.160156 -2.617188 9.109375 -3.140625 C 10.066406 -3.660156 10.894531 -4.34375 11.59375 -5.1875 C 11.789062 -5.414062 12.007812 -5.53125 12.25 -5.53125 Z M 6 -9.125 C 5.394531 -9.125 4.878906 -8.769531 4.453125 -8.0625 C 4.035156 -7.351562 3.828125 -6.492188 3.828125 -5.484375 L 3.828125 -5.4375 C 4.796875 -5.664062 5.5625 -6.007812 6.125 -6.46875 C 6.6875 -6.9375 6.96875 -7.476562 6.96875 -8.09375 C 6.96875 -8.40625 6.878906 -8.65625 6.703125 -8.84375 C 6.535156 -9.03125 6.300781 -9.125 6 -9.125 Z M 6 -9.125 "/></g></g></g><g fill="rgb(76.078796%, 42.749023%, 73.728943%)" fill-opacity="1"><g transform="translate(199.897797, 29.623706)"><g><path d="M 5.8125 0.671875 C 4.945312 0.671875 4.285156 0.472656 3.828125 0.078125 C 3.378906 -0.316406 3.15625 -0.765625 3.15625 -1.265625 C 3.15625 -1.691406 3.3125 -2.0625 3.625 -2.375 C 3.9375 -2.695312 4.398438 -2.859375 5.015625 -2.859375 C 5.222656 -2.859375 5.472656 -2.835938 5.765625 -2.796875 C 6.054688 -2.753906 6.273438 -2.722656 6.421875 -2.703125 C 6.410156 -3.128906 6.316406 -3.53125 6.140625 -3.90625 C 5.960938 -4.289062 5.742188 -4.660156 5.484375 -5.015625 C 5.222656 -5.378906 4.972656 -5.691406 4.734375 -5.953125 C 4.222656 -4.972656 3.710938 -4.160156 3.203125 -3.515625 C 2.703125 -2.878906 2.15625 -2.269531 1.5625 -1.6875 C 1.257812 -1.382812 0.945312 -1.234375 0.625 -1.234375 C 0.351562 -1.234375 0.140625 -1.328125 -0.015625 -1.515625 C -0.179688 -1.710938 -0.265625 -1.953125 -0.265625 -2.234375 C -0.265625 -2.566406 -0.148438 -2.875 0.078125 -3.15625 L 0.390625 -3.546875 C 1.304688 -4.671875 1.992188 -5.597656 2.453125 -6.328125 C 2.734375 -6.804688 3.0625 -7.445312 3.4375 -8.25 C 3.820312 -9.050781 4.195312 -9.882812 4.5625 -10.75 C 4.875 -11.46875 5.53125 -11.828125 6.53125 -11.828125 C 6.988281 -11.828125 7.304688 -11.785156 7.484375 -11.703125 C 7.671875 -11.628906 7.765625 -11.5 7.765625 -11.3125 C 7.765625 -11.21875 7.726562 -11.0625 7.65625 -10.84375 C 7.59375 -10.625 7.503906 -10.410156 7.390625 -10.203125 C 7.097656 -9.597656 6.953125 -9.09375 6.953125 -8.6875 C 6.953125 -8.4375 7.035156 -8.160156 7.203125 -7.859375 C 7.378906 -7.566406 7.648438 -7.195312 8.015625 -6.75 C 8.546875 -6.050781 8.945312 -5.457031 9.21875 -4.96875 C 9.488281 -4.488281 9.625 -3.957031 9.625 -3.375 C 9.625 -3.207031 9.609375 -2.976562 9.578125 -2.6875 C 10.390625 -3 11.34375 -3.832031 12.4375 -5.1875 C 12.632812 -5.414062 12.851562 -5.53125 13.09375 -5.53125 C 13.3125 -5.53125 13.484375 -5.429688 13.609375 -5.234375 C 13.734375 -5.035156 13.796875 -4.765625 13.796875 -4.421875 C 13.796875 -3.785156 13.640625 -3.269531 13.328125 -2.875 C 12.492188 -1.851562 11.703125 -1.15625 10.953125 -0.78125 C 10.203125 -0.40625 9.269531 -0.203125 8.15625 -0.171875 C 7.5 0.390625 6.71875 0.671875 5.8125 0.671875 Z M 5.8125 0.671875 "/></g></g></g></svg>